<svg width="90" height="78" viewBox="0 0 90 78" fill="none" xmlns="http://www.w3.org/2000/svg">
<g opacity="0.3" filter="url(#filter0_d_1_71)">
<mask id="mask0_1_71" style="mask-type:alpha" maskUnits="userSpaceOnUse" x="4" y="0" width="8" height="8">
<path d="M7.90962 7.97735C10.0689 7.97735 11.8193 6.19152 11.8193 3.98865C11.8193 1.78577 10.0689 0 7.90962 0C5.7504 0 4 1.78577 4 3.98865C4 6.19152 5.7504 7.97735 7.90962 7.97735Z" fill="url(#paint0_linear_1_71)"/>
</mask>
<g mask="url(#mask0_1_71)">
<path d="M7.90962 7.97735C10.0689 7.97735 11.8193 6.19152 11.8193 3.98865C11.8193 1.78577 10.0689 0 7.90962 0C5.7504 0 4 1.78577 4 3.98865C4 6.19152 5.7504 7.97735 7.90962 7.97735Z" fill="url(#paint1_linear_1_71)"/>
</g>
<mask id="mask1_1_71" style="mask-type:alpha" maskUnits="userSpaceOnUse" x="26" y="0" width="9" height="8">
<path d="M30.5525 7.97735C32.7117 7.97735 34.4621 6.19152 34.4621 3.98865C34.4621 1.78577 32.7117 0 30.5525 0C28.3933 0 26.6429 1.78577 26.6429 3.98865C26.6429 6.19152 28.3933 7.97735 30.5525 7.97735Z" fill="url(#paint2_linear_1_71)"/>
</mask>
<g mask="url(#mask1_1_71)">
<path d="M30.5529 7.97735C32.7121 7.97735 34.4625 6.19152 34.4625 3.98865C34.4625 1.78577 32.7121 0 30.5529 0C28.3937 0 26.6432 1.78577 26.6432 3.98865C26.6432 6.19152 28.3937 7.97735 30.5529 7.97735Z" fill="url(#paint3_linear_1_71)"/>
</g>
<mask id="mask2_1_71" style="mask-type:alpha" maskUnits="userSpaceOnUse" x="49" y="0" width="9" height="8">
<path d="M53.1953 7.97735C55.3546 7.97735 57.105 6.19152 57.105 3.98865C57.105 1.78577 55.3546 0 53.1953 0C51.0361 0 49.2857 1.78577 49.2857 3.98865C49.2857 6.19152 51.0361 7.97735 53.1953 7.97735Z" fill="url(#paint4_linear_1_71)"/>
</mask>
<g mask="url(#mask2_1_71)">
<path d="M53.196 7.97735C55.3552 7.97735 57.1056 6.19152 57.1056 3.98865C57.1056 1.78577 55.3552 0 53.196 0C51.0368 0 49.2864 1.78577 49.2864 3.98865C49.2864 6.19152 51.0368 7.97735 53.196 7.97735Z" fill="url(#paint5_linear_1_71)"/>
</g>
<mask id="mask3_1_71" style="mask-type:alpha" maskUnits="userSpaceOnUse" x="71" y="0" width="9" height="8">
<path d="M75.8382 7.97735C77.9974 7.97735 79.7478 6.19152 79.7478 3.98865C79.7478 1.78577 77.9974 0 75.8382 0C73.6789 0 71.9285 1.78577 71.9285 3.98865C71.9285 6.19152 73.6789 7.97735 75.8382 7.97735Z" fill="url(#paint6_linear_1_71)"/>
</mask>
<g mask="url(#mask3_1_71)">
<path d="M75.8388 7.97735C77.998 7.97735 79.7484 6.19152 79.7484 3.98865C79.7484 1.78577 77.998 0 75.8388 0C73.6795 0 71.9291 1.78577 71.9291 3.98865C71.9291 6.19152 73.6795 7.97735 75.8388 7.97735Z" fill="url(#paint7_linear_1_71)"/>
</g>
<mask id="mask4_1_71" style="mask-type:alpha" maskUnits="userSpaceOnUse" x="4" y="20" width="8" height="9">
<path d="M7.90962 28.0037C10.0689 28.0037 11.8193 26.2179 11.8193 24.015C11.8193 21.8122 10.0689 20.0264 7.90962 20.0264C5.7504 20.0264 4 21.8122 4 24.015C4 26.2179 5.7504 28.0037 7.90962 28.0037Z" fill="url(#paint8_linear_1_71)"/>
</mask>
<g mask="url(#mask4_1_71)">
<path d="M7.90962 28.0037C10.0689 28.0037 11.8193 26.218 11.8193 24.0151C11.8193 21.8122 10.0689 20.0265 7.90962 20.0265C5.7504 20.0265 4 21.8122 4 24.0151C4 26.218 5.7504 28.0037 7.90962 28.0037Z" fill="url(#paint9_linear_1_71)"/>
</g>
<mask id="mask5_1_71" style="mask-type:alpha" maskUnits="userSpaceOnUse" x="26" y="20" width="9" height="9">
<path d="M30.5525 28.0038C32.7117 28.0038 34.4621 26.218 34.4621 24.0151C34.4621 21.8123 32.7117 20.0265 30.5525 20.0265C28.3933 20.0265 26.6429 21.8123 26.6429 24.0151C26.6429 26.218 28.3933 28.0038 30.5525 28.0038Z" fill="url(#paint10_linear_1_71)"/>
</mask>
<g mask="url(#mask5_1_71)">
<path d="M30.5529 28.0037C32.7121 28.0037 34.4625 26.2179 34.4625 24.0151C34.4625 21.8122 32.7121 20.0264 30.5529 20.0264C28.3937 20.0264 26.6432 21.8122 26.6432 24.0151C26.6432 26.2179 28.3937 28.0037 30.5529 28.0037Z" fill="url(#paint11_linear_1_71)"/>
</g>
<mask id="mask6_1_71" style="mask-type:alpha" maskUnits="userSpaceOnUse" x="49" y="20" width="9" height="9">
<path d="M53.1953 28.0038C55.3546 28.0038 57.105 26.218 57.105 24.0151C57.105 21.8123 55.3546 20.0265 53.1953 20.0265C51.0361 20.0265 49.2857 21.8123 49.2857 24.0151C49.2857 26.218 51.0361 28.0038 53.1953 28.0038Z" fill="url(#paint12_linear_1_71)"/>
</mask>
<g mask="url(#mask6_1_71)">
<path d="M53.196 28.0037C55.3552 28.0037 57.1056 26.2179 57.1056 24.0151C57.1056 21.8122 55.3552 20.0264 53.196 20.0264C51.0368 20.0264 49.2864 21.8122 49.2864 24.0151C49.2864 26.2179 51.0368 28.0037 53.196 28.0037Z" fill="url(#paint13_linear_1_71)"/>
</g>
<mask id="mask7_1_71" style="mask-type:alpha" maskUnits="userSpaceOnUse" x="71" y="20" width="9" height="9">
<path d="M75.8382 28.0038C77.9974 28.0038 79.7478 26.218 79.7478 24.0151C79.7478 21.8123 77.9974 20.0265 75.8382 20.0265C73.6789 20.0265 71.9285 21.8123 71.9285 24.0151C71.9285 26.218 73.6789 28.0038 75.8382 28.0038Z" fill="url(#paint14_linear_1_71)"/>
</mask>
<g mask="url(#mask7_1_71)">
<path d="M75.8388 28.0037C77.998 28.0037 79.7484 26.2179 79.7484 24.0151C79.7484 21.8122 77.998 20.0264 75.8388 20.0264C73.6795 20.0264 71.9291 21.8122 71.9291 24.0151C71.9291 26.2179 73.6795 28.0037 75.8388 28.0037Z" fill="url(#paint15_linear_1_71)"/>
</g>
<mask id="mask8_1_71" style="mask-type:alpha" maskUnits="userSpaceOnUse" x="4" y="40" width="8" height="8">
<path d="M7.90962 47.9887C10.0689 47.9887 11.8193 46.2029 11.8193 44C11.8193 41.7971 10.0689 40.0113 7.90962 40.0113C5.7504 40.0113 4 41.7971 4 44C4 46.2029 5.7504 47.9887 7.90962 47.9887Z" fill="url(#paint16_linear_1_71)"/>
</mask>
<g mask="url(#mask8_1_71)">
<path d="M7.90962 47.9888C10.0689 47.9888 11.8193 46.203 11.8193 44.0001C11.8193 41.7972 10.0689 40.0114 7.90962 40.0114C5.7504 40.0114 4 41.7972 4 44.0001C4 46.203 5.7504 47.9888 7.90962 47.9888Z" fill="url(#paint17_linear_1_71)"/>
</g>
<mask id="mask9_1_71" style="mask-type:alpha" maskUnits="userSpaceOnUse" x="26" y="40" width="9" height="8">
<path d="M30.5525 47.9889C32.7117 47.9889 34.4621 46.2032 34.4621 44.0003C34.4621 41.7974 32.7117 40.0116 30.5525 40.0116C28.3933 40.0116 26.6429 41.7974 26.6429 44.0003C26.6429 46.2032 28.3933 47.9889 30.5525 47.9889Z" fill="url(#paint18_linear_1_71)"/>
</mask>
<g mask="url(#mask9_1_71)">
<path d="M30.5529 47.9888C32.7121 47.9888 34.4625 46.203 34.4625 44.0001C34.4625 41.7972 32.7121 40.0114 30.5529 40.0114C28.3937 40.0114 26.6432 41.7972 26.6432 44.0001C26.6432 46.203 28.3937 47.9888 30.5529 47.9888Z" fill="url(#paint19_linear_1_71)"/>
</g>
<mask id="mask10_1_71" style="mask-type:alpha" maskUnits="userSpaceOnUse" x="49" y="40" width="9" height="8">
<path d="M53.1953 47.9889C55.3546 47.9889 57.105 46.2032 57.105 44.0003C57.105 41.7974 55.3546 40.0116 53.1953 40.0116C51.0361 40.0116 49.2857 41.7974 49.2857 44.0003C49.2857 46.2032 51.0361 47.9889 53.1953 47.9889Z" fill="url(#paint20_linear_1_71)"/>
</mask>
<g mask="url(#mask10_1_71)">
<path d="M53.196 47.9888C55.3552 47.9888 57.1056 46.203 57.1056 44.0001C57.1056 41.7972 55.3552 40.0114 53.196 40.0114C51.0368 40.0114 49.2864 41.7972 49.2864 44.0001C49.2864 46.203 51.0368 47.9888 53.196 47.9888Z" fill="url(#paint21_linear_1_71)"/>
</g>
<mask id="mask11_1_71" style="mask-type:alpha" maskUnits="userSpaceOnUse" x="71" y="40" width="9" height="8">
<path d="M75.8382 47.9889C77.9974 47.9889 79.7478 46.2032 79.7478 44.0003C79.7478 41.7974 77.9974 40.0116 75.8382 40.0116C73.6789 40.0116 71.9285 41.7974 71.9285 44.0003C71.9285 46.2032 73.6789 47.9889 75.8382 47.9889Z" fill="url(#paint22_linear_1_71)"/>
</mask>
<g mask="url(#mask11_1_71)">
<path d="M75.8388 47.9888C77.998 47.9888 79.7484 46.203 79.7484 44.0001C79.7484 41.7972 77.998 40.0114 75.8388 40.0114C73.6795 40.0114 71.9291 41.7972 71.9291 44.0001C71.9291 46.203 73.6795 47.9888 75.8388 47.9888Z" fill="url(#paint23_linear_1_71)"/>
</g>
<mask id="mask12_1_71" style="mask-type:alpha" maskUnits="userSpaceOnUse" x="4" y="60" width="8" height="9">
<path d="M7.90962 68.0155C10.0689 68.0155 11.8193 66.2296 11.8193 64.0268C11.8193 61.8239 10.0689 60.0381 7.90962 60.0381C5.7504 60.0381 4 61.8239 4 64.0268C4 66.2296 5.7504 68.0155 7.90962 68.0155Z" fill="url(#paint24_linear_1_71)"/>
</mask>
<g mask="url(#mask12_1_71)">
<path d="M7.90962 68.0152C10.0689 68.0152 11.8193 66.2294 11.8193 64.0265C11.8193 61.8236 10.0689 60.0379 7.90962 60.0379C5.7504 60.0379 4 61.8236 4 64.0265C4 66.2294 5.7504 68.0152 7.90962 68.0152Z" fill="url(#paint25_linear_1_71)"/>
</g>
<mask id="mask13_1_71" style="mask-type:alpha" maskUnits="userSpaceOnUse" x="26" y="60" width="9" height="9">
<path d="M30.5525 68.0155C32.7117 68.0155 34.4621 66.2296 34.4621 64.0268C34.4621 61.8239 32.7117 60.0381 30.5525 60.0381C28.3933 60.0381 26.6429 61.8239 26.6429 64.0268C26.6429 66.2296 28.3933 68.0155 30.5525 68.0155Z" fill="url(#paint26_linear_1_71)"/>
</mask>
<g mask="url(#mask13_1_71)">
<path d="M30.5529 68.0152C32.7121 68.0152 34.4625 66.2294 34.4625 64.0265C34.4625 61.8236 32.7121 60.0379 30.5529 60.0379C28.3937 60.0379 26.6432 61.8236 26.6432 64.0265C26.6432 66.2294 28.3937 68.0152 30.5529 68.0152Z" fill="url(#paint27_linear_1_71)"/>
</g>
<mask id="mask14_1_71" style="mask-type:alpha" maskUnits="userSpaceOnUse" x="49" y="60" width="9" height="9">
<path d="M53.1953 68.0155C55.3546 68.0155 57.105 66.2296 57.105 64.0268C57.105 61.8239 55.3546 60.0381 53.1953 60.0381C51.0361 60.0381 49.2857 61.8239 49.2857 64.0268C49.2857 66.2296 51.0361 68.0155 53.1953 68.0155Z" fill="url(#paint28_linear_1_71)"/>
</mask>
<g mask="url(#mask14_1_71)">
<path d="M53.196 68.0152C55.3552 68.0152 57.1056 66.2294 57.1056 64.0265C57.1056 61.8236 55.3552 60.0379 53.196 60.0379C51.0368 60.0379 49.2864 61.8236 49.2864 64.0265C49.2864 66.2294 51.0368 68.0152 53.196 68.0152Z" fill="url(#paint29_linear_1_71)"/>
</g>
<mask id="mask15_1_71" style="mask-type:alpha" maskUnits="userSpaceOnUse" x="71" y="60" width="9" height="9">
<path d="M75.8382 68.0155C77.9974 68.0155 79.7478 66.2296 79.7478 64.0268C79.7478 61.8239 77.9974 60.0381 75.8382 60.0381C73.6789 60.0381 71.9285 61.8239 71.9285 64.0268C71.9285 66.2296 73.6789 68.0155 75.8382 68.0155Z" fill="url(#paint30_linear_1_71)"/>
</mask>
<g mask="url(#mask15_1_71)">
<path d="M75.8388 68.0152C77.998 68.0152 79.7484 66.2294 79.7484 64.0265C79.7484 61.8236 77.998 60.0379 75.8388 60.0379C73.6795 60.0379 71.9291 61.8236 71.9291 64.0265C71.9291 66.2294 73.6795 68.0152 75.8388 68.0152Z" fill="url(#paint31_linear_1_71)"/>
</g>
</g>
<defs>
<filter id="filter0_d_1_71" x="0" y="0" width="106.393" height="96.0002" filterUnits="userSpaceOnUse" color-interpolation-filters="sRGB">
<feFlood flood-opacity="0" result="BackgroundImageFix"/>
<feColorMatrix in="SourceAlpha" type="matrix" values="0 0 0 0 0 0 0 0 0 0 0 0 0 0 0 0 0 0 127 0" result="hardAlpha"/>
<feOffset dy="4"/>
<feGaussianBlur stdDeviation="2"/>
<feComposite in2="hardAlpha" operator="out"/>
<feColorMatrix type="matrix" values="0 0 0 0 0 0 0 0 0 0 0 0 0 0 0 0 0 0 0.25 0"/>
<feBlend mode="normal" in2="BackgroundImageFix" result="effect1_dropShadow_1_71"/>
<feBlend mode="normal" in="SourceGraphic" in2="effect1_dropShadow_1_71" result="shape"/>
</filter>
<linearGradient id="paint0_linear_1_71" x1="42.076" y1="92.4707" x2="-13.486" y2="-45.7764" gradientUnits="userSpaceOnUse">
<stop stop-color="#89C5CC"/>
<stop offset="1" stop-color="#89C5CC"/>
</linearGradient>
<linearGradient id="paint1_linear_1_71" x1="42.076" y1="92.4707" x2="-13.486" y2="-45.7764" gradientUnits="userSpaceOnUse">
<stop stop-color="#89C5CC"/>
<stop offset="1" stop-color="#89C5CC"/>
</linearGradient>
<linearGradient id="paint2_linear_1_71" x1="64.7189" y1="92.4707" x2="9.15693" y2="-45.7764" gradientUnits="userSpaceOnUse">
<stop stop-color="#89C5CC"/>
<stop offset="1" stop-color="#89C5CC"/>
</linearGradient>
<linearGradient id="paint3_linear_1_71" x1="64.7193" y1="92.4707" x2="9.1573" y2="-45.7764" gradientUnits="userSpaceOnUse">
<stop stop-color="#89C5CC"/>
<stop offset="1" stop-color="#89C5CC"/>
</linearGradient>
<linearGradient id="paint4_linear_1_71" x1="87.3617" y1="92.4707" x2="31.7998" y2="-45.7764" gradientUnits="userSpaceOnUse">
<stop stop-color="#89C5CC"/>
<stop offset="1" stop-color="#89C5CC"/>
</linearGradient>
<linearGradient id="paint5_linear_1_71" x1="87.3624" y1="92.4707" x2="31.8004" y2="-45.7764" gradientUnits="userSpaceOnUse">
<stop stop-color="#89C5CC"/>
<stop offset="1" stop-color="#89C5CC"/>
</linearGradient>
<linearGradient id="paint6_linear_1_71" x1="110.005" y1="92.4707" x2="54.4426" y2="-45.7764" gradientUnits="userSpaceOnUse">
<stop stop-color="#89C5CC"/>
<stop offset="1" stop-color="#89C5CC"/>
</linearGradient>
<linearGradient id="paint7_linear_1_71" x1="110.005" y1="92.4707" x2="54.4432" y2="-45.7764" gradientUnits="userSpaceOnUse">
<stop stop-color="#89C5CC"/>
<stop offset="1" stop-color="#89C5CC"/>
</linearGradient>
<linearGradient id="paint8_linear_1_71" x1="42.076" y1="112.496" x2="-13.4851" y2="-25.7499" gradientUnits="userSpaceOnUse">
<stop stop-color="#89C5CC"/>
<stop offset="1" stop-color="#89C5CC"/>
</linearGradient>
<linearGradient id="paint9_linear_1_71" x1="42.076" y1="112.496" x2="-13.4851" y2="-25.7499" gradientUnits="userSpaceOnUse">
<stop stop-color="#89C5CC"/>
<stop offset="1" stop-color="#89C5CC"/>
</linearGradient>
<linearGradient id="paint10_linear_1_71" x1="64.7189" y1="112.496" x2="9.15788" y2="-25.7499" gradientUnits="userSpaceOnUse">
<stop stop-color="#89C5CC"/>
<stop offset="1" stop-color="#89C5CC"/>
</linearGradient>
<linearGradient id="paint11_linear_1_71" x1="64.7193" y1="112.496" x2="9.15824" y2="-25.7499" gradientUnits="userSpaceOnUse">
<stop stop-color="#89C5CC"/>
<stop offset="1" stop-color="#89C5CC"/>
</linearGradient>
<linearGradient id="paint12_linear_1_71" x1="87.3617" y1="112.496" x2="31.8007" y2="-25.7499" gradientUnits="userSpaceOnUse">
<stop stop-color="#89C5CC"/>
<stop offset="1" stop-color="#89C5CC"/>
</linearGradient>
<linearGradient id="paint13_linear_1_71" x1="87.3624" y1="112.496" x2="31.8014" y2="-25.7499" gradientUnits="userSpaceOnUse">
<stop stop-color="#89C5CC"/>
<stop offset="1" stop-color="#89C5CC"/>
</linearGradient>
<linearGradient id="paint14_linear_1_71" x1="110.005" y1="112.496" x2="54.4435" y2="-25.7499" gradientUnits="userSpaceOnUse">
<stop stop-color="#89C5CC"/>
<stop offset="1" stop-color="#89C5CC"/>
</linearGradient>
<linearGradient id="paint15_linear_1_71" x1="110.005" y1="112.496" x2="54.4441" y2="-25.7499" gradientUnits="userSpaceOnUse">
<stop stop-color="#89C5CC"/>
<stop offset="1" stop-color="#89C5CC"/>
</linearGradient>
<linearGradient id="paint16_linear_1_71" x1="42.076" y1="132.482" x2="-13.486" y2="-5.76507" gradientUnits="userSpaceOnUse">
<stop stop-color="#89C5CC"/>
<stop offset="1" stop-color="#89C5CC"/>
</linearGradient>
<linearGradient id="paint17_linear_1_71" x1="42.076" y1="132.482" x2="-13.486" y2="-5.76498" gradientUnits="userSpaceOnUse">
<stop stop-color="#89C5CC"/>
<stop offset="1" stop-color="#89C5CC"/>
</linearGradient>
<linearGradient id="paint18_linear_1_71" x1="64.7189" y1="132.482" x2="9.15693" y2="-5.76484" gradientUnits="userSpaceOnUse">
<stop stop-color="#89C5CC"/>
<stop offset="1" stop-color="#89C5CC"/>
</linearGradient>
<linearGradient id="paint19_linear_1_71" x1="64.7193" y1="132.482" x2="9.1573" y2="-5.76502" gradientUnits="userSpaceOnUse">
<stop stop-color="#89C5CC"/>
<stop offset="1" stop-color="#89C5CC"/>
</linearGradient>
<linearGradient id="paint20_linear_1_71" x1="87.3617" y1="132.482" x2="31.7998" y2="-5.76484" gradientUnits="userSpaceOnUse">
<stop stop-color="#89C5CC"/>
<stop offset="1" stop-color="#89C5CC"/>
</linearGradient>
<linearGradient id="paint21_linear_1_71" x1="87.3624" y1="132.482" x2="31.8004" y2="-5.76502" gradientUnits="userSpaceOnUse">
<stop stop-color="#89C5CC"/>
<stop offset="1" stop-color="#89C5CC"/>
</linearGradient>
<linearGradient id="paint22_linear_1_71" x1="110.005" y1="132.482" x2="54.4426" y2="-5.76484" gradientUnits="userSpaceOnUse">
<stop stop-color="#89C5CC"/>
<stop offset="1" stop-color="#89C5CC"/>
</linearGradient>
<linearGradient id="paint23_linear_1_71" x1="110.005" y1="132.482" x2="54.4432" y2="-5.76502" gradientUnits="userSpaceOnUse">
<stop stop-color="#89C5CC"/>
<stop offset="1" stop-color="#89C5CC"/>
</linearGradient>
<linearGradient id="paint24_linear_1_71" x1="42.076" y1="152.509" x2="-13.486" y2="14.2617" gradientUnits="userSpaceOnUse">
<stop stop-color="#89C5CC"/>
<stop offset="1" stop-color="#89C5CC"/>
</linearGradient>
<linearGradient id="paint25_linear_1_71" x1="42.076" y1="152.509" x2="-13.486" y2="14.2615" gradientUnits="userSpaceOnUse">
<stop stop-color="#89C5CC"/>
<stop offset="1" stop-color="#89C5CC"/>
</linearGradient>
<linearGradient id="paint26_linear_1_71" x1="64.7189" y1="152.509" x2="9.15693" y2="14.2617" gradientUnits="userSpaceOnUse">
<stop stop-color="#89C5CC"/>
<stop offset="1" stop-color="#89C5CC"/>
</linearGradient>
<linearGradient id="paint27_linear_1_71" x1="64.7193" y1="152.509" x2="9.1573" y2="14.2614" gradientUnits="userSpaceOnUse">
<stop stop-color="#89C5CC"/>
<stop offset="1" stop-color="#89C5CC"/>
</linearGradient>
<linearGradient id="paint28_linear_1_71" x1="87.3617" y1="152.509" x2="31.7998" y2="14.2617" gradientUnits="userSpaceOnUse">
<stop stop-color="#89C5CC"/>
<stop offset="1" stop-color="#89C5CC"/>
</linearGradient>
<linearGradient id="paint29_linear_1_71" x1="87.3624" y1="152.509" x2="31.8004" y2="14.2614" gradientUnits="userSpaceOnUse">
<stop stop-color="#89C5CC"/>
<stop offset="1" stop-color="#89C5CC"/>
</linearGradient>
<linearGradient id="paint30_linear_1_71" x1="110.005" y1="152.509" x2="54.4426" y2="14.2617" gradientUnits="userSpaceOnUse">
<stop stop-color="#89C5CC"/>
<stop offset="1" stop-color="#89C5CC"/>
</linearGradient>
<linearGradient id="paint31_linear_1_71" x1="110.005" y1="152.509" x2="54.4432" y2="14.2614" gradientUnits="userSpaceOnUse">
<stop stop-color="#89C5CC"/>
<stop offset="1" stop-color="#89C5CC"/>
</linearGradient>
</defs>
</svg>
